<svg width="30" height="15" viewBox="0 0 30 15" fill="none" xmlns="http://www.w3.org/2000/svg">
<path fill-rule="evenodd" clip-rule="evenodd" d="M8.30629 0.0333181L8.74812 0.866272C8.98602 1.32606 9.45504 2.21232 9.78131 2.83204C10.1144 3.45176 10.7873 4.7445 11.2835 5.6974C11.7797 6.6503 12.4187 7.86974 13.2207 9.38239L13.2547 5.59745L24.0964 5.56413L24.4363 5.41753C24.6266 5.3309 24.8917 5.15098 25.0276 5.01771C25.1636 4.87778 25.3267 4.63122 25.3879 4.46463C25.4423 4.29804 25.4899 4.02483 25.4899 3.84491C25.4899 3.67166 25.4559 3.39179 25.4083 3.21853C25.3539 2.98531 25.2384 2.81205 25.0208 2.59881C24.8509 2.43222 24.5586 2.23898 24.3683 2.16568C24.0352 2.03907 23.8517 2.03241 17.2991 2.01908C11.9293 2.00575 10.5562 1.98576 10.495 1.91912C10.4474 1.87248 10.2163 1.45267 9.96484 0.986217C9.72013 0.513099 9.52981 0.0999544 9.5502 0.0666363C9.57059 0.0199909 11.9361 0 16.4359 0C20.6774 0 23.5526 0.0266545 23.9945 0.0666363C24.3887 0.106618 24.8781 0.186582 25.082 0.239891C25.2859 0.299863 25.6122 0.419809 25.7957 0.506436C25.9861 0.593063 26.3123 0.799635 26.5298 0.966226C26.7406 1.13282 27.0396 1.45267 27.1892 1.6859C27.3455 1.91246 27.529 2.29229 27.6038 2.53218C27.7058 2.8587 27.7398 3.15856 27.7398 3.76495C27.7398 4.378 27.7126 4.66454 27.6038 4.99772C27.529 5.23761 27.3455 5.61077 27.2028 5.83067C27.06 6.05057 26.7881 6.37043 26.6046 6.53702C26.4211 6.70361 26.1492 6.91685 25.9997 7.01014C25.8501 7.10343 25.5442 7.24336 25.3199 7.32333C25.0956 7.40995 24.6334 7.51657 24.3003 7.56988C23.8313 7.63652 22.737 7.66317 15.4978 7.66317V12.361L15.8513 12.441C16.0484 12.4876 16.5786 12.5609 17.0272 12.6009C17.6186 12.6476 18.0876 12.6476 18.7265 12.5943C19.2092 12.5543 19.7937 12.4943 20.018 12.4543C20.2423 12.421 20.6842 12.321 21.0036 12.2411C21.3231 12.1611 21.5134 12.0878 21.4319 12.0812C21.3435 12.0678 21.2755 12.0345 21.2755 11.9945C21.2755 11.9545 21.3639 11.8013 21.4727 11.648C21.5814 11.4881 21.7989 11.1216 21.9689 10.8284C22.132 10.5352 22.3359 10.1487 22.4311 9.97545C22.5262 9.8022 22.7573 9.45569 22.9409 9.20913C23.1652 8.91593 23.4439 8.66272 23.7565 8.45614C24.0216 8.28289 24.4771 8.02301 24.7761 7.87641C25.116 7.70315 25.3471 7.62985 25.3879 7.66317C25.4355 7.70315 25.3947 7.83643 25.2723 8.043C25.1772 8.22292 25.0412 8.61607 24.9733 8.92926C24.9121 9.24245 24.7829 9.64893 24.7014 9.82885C24.613 10.0154 24.4091 10.3086 24.2527 10.4885C24.0896 10.6685 23.7497 10.955 23.4847 11.1216C23.2196 11.2948 22.7505 11.5414 22.4311 11.6747C22.1116 11.8079 21.7921 11.9346 21.7174 11.9545C21.6426 11.9812 21.595 12.0079 21.6154 12.0278C21.6358 12.0478 21.8805 11.9879 22.1592 11.8879C22.4379 11.7946 23.036 11.5414 23.4847 11.3282C23.9333 11.1149 24.4703 10.8284 24.681 10.6885C24.8917 10.5419 25.1976 10.3086 25.3607 10.162C25.5238 10.0154 25.755 9.77554 25.8705 9.62894C25.9861 9.48234 26.122 9.20247 26.1696 8.9959C26.2172 8.79599 26.3463 8.43615 26.4619 8.19626C26.5774 7.95637 26.7677 7.6032 26.8969 7.41662C27.0192 7.22337 27.2979 6.89019 27.5154 6.67029C27.7262 6.45705 28.0456 6.17052 28.2292 6.03725C28.4059 5.90397 28.6642 5.7707 28.8069 5.73738C28.9429 5.6974 29.2012 5.5508 29.3847 5.4042C29.5614 5.25094 29.7654 5.13099 29.8401 5.13099C29.9149 5.13099 29.9829 5.17098 29.9965 5.21762C30.0101 5.2576 29.9829 5.49083 29.9421 5.73072C29.8945 5.97061 29.7925 6.34377 29.7042 6.56367C29.6226 6.78357 29.4051 7.20338 29.2284 7.49658C29.0177 7.84975 28.7322 8.18293 28.4059 8.4828C28.1272 8.72935 27.8757 8.93592 27.8349 8.93592C27.7941 8.93592 27.7194 8.97591 27.665 9.02255C27.6106 9.07586 27.3319 9.19581 27.0532 9.29576C26.659 9.42903 26.4687 9.54231 26.2308 9.78221C26.0608 9.95546 25.7414 10.2287 25.517 10.3953C25.2927 10.5618 25.0344 10.7484 24.7761 10.935L24.9461 10.855C25.0412 10.8084 25.3403 10.6152 25.6122 10.4152C25.8773 10.222 26.2308 9.98878 26.3939 9.90215C26.5502 9.81552 26.8357 9.70224 27.0192 9.64227C27.2096 9.5823 27.6786 9.48901 28.0728 9.4357C28.4671 9.38239 28.9701 9.27577 29.1944 9.19581C29.4187 9.11584 29.6226 9.07586 29.6566 9.10918C29.6838 9.13583 29.609 9.31575 29.4867 9.49567C29.3643 9.68225 28.9429 10.142 28.5486 10.5285C27.9845 11.0883 27.7398 11.2815 27.3591 11.4548C27.094 11.5747 26.6998 11.708 26.4755 11.7413C26.2512 11.7746 25.9317 11.788 25.7617 11.7613C25.5918 11.7413 25.2587 11.6547 25.014 11.5814C24.7693 11.5014 24.5178 11.3815 24.4567 11.3148C24.3411 11.2016 24.3139 11.2016 23.8449 11.4348C23.573 11.5681 23.0292 11.8079 22.635 11.9612C22.2407 12.1145 21.629 12.3144 21.2755 12.4143C20.9221 12.5076 20.5686 12.6009 20.4938 12.6142C20.3851 12.6342 20.4123 12.6676 20.6298 12.7608C20.7929 12.8275 20.9968 12.8608 21.1396 12.8475C21.2687 12.8275 21.6086 12.7075 21.8873 12.5809C22.166 12.4477 22.5194 12.3077 22.669 12.2677C22.8185 12.2278 23.2671 12.1944 23.675 12.1944C24.2188 12.1944 24.5858 12.2344 25.116 12.361C25.5102 12.4543 26.0132 12.5276 26.2376 12.5276C26.5162 12.5276 26.6454 12.5543 26.6454 12.6142C26.6454 12.6542 26.2579 12.9208 25.7821 13.2073C25.2995 13.4872 24.8169 13.7604 24.7082 13.8137C24.5994 13.867 24.2935 13.9736 24.0284 14.0536C23.6954 14.1535 23.3759 14.1935 22.9613 14.1935C22.4379 14.1935 22.2883 14.1669 21.7717 13.9603C21.4387 13.827 21.0376 13.6271 20.8677 13.5138C20.6978 13.4006 20.4123 13.1673 20.222 13.0074C19.9297 12.7542 19.8549 12.7142 19.6782 12.7475C19.5694 12.7742 19.0324 12.8142 17.503 12.8875L17.9109 13.0074C18.1352 13.0807 18.5022 13.2206 18.7265 13.3273C18.9509 13.4272 19.2975 13.6604 19.5014 13.8404C19.6986 14.0136 19.9705 14.3135 20.0928 14.4934C20.2152 14.68 20.3239 14.8732 20.3239 14.9265C20.3239 15.0065 20.2695 15.0198 20.0384 14.9732C19.8753 14.9465 19.3451 14.8666 18.8625 14.7999C18.2303 14.7133 17.8497 14.62 17.537 14.4867C17.2923 14.3734 16.9593 14.1535 16.7893 13.9936C16.6194 13.827 16.3747 13.4872 16.2455 13.234C16.096 12.9474 15.9465 12.7542 15.8581 12.7209C15.7697 12.6875 15.6542 12.6609 15.5998 12.6609C15.5182 12.6609 15.4978 12.7475 15.4978 13.4605L12.9624 13.4272L12.1536 11.8946C11.7049 11.055 11.3311 10.3086 11.3175 10.2487C11.2835 10.1354 11.0592 10.1287 3.98321 10.162L2.27709 13.4605H1.14195C0.421432 13.4605 0 13.4339 0 13.3939C0 13.3539 0.299081 12.7475 0.672932 12.0478C1.03999 11.3415 1.91684 9.64893 2.61696 8.29622C3.31708 6.9435 4.35707 4.93108 4.92804 3.83159C5.49901 2.73209 6.16515 1.45267 6.40985 0.99288C6.65455 0.53309 6.87207 0.119945 6.89925 0.0799635C6.93324 0.0199909 7.14396 0 8.30629 0.0333181ZM6.39625 5.56413C5.89325 6.51703 5.36986 7.51657 5.22712 7.78312L4.96203 8.2629H10.2639C9.69974 7.20338 9.10838 6.07723 8.59178 5.07768C8.06839 4.07814 7.63336 3.26518 7.61297 3.26518C7.59258 3.26518 7.51781 3.39179 7.44304 3.55171C7.36147 3.70498 6.89246 4.61123 6.39625 5.56413ZM22.4175 8.66272C22.4583 8.66272 22.5126 8.68937 22.533 8.72935C22.5534 8.76933 22.4855 8.89594 22.3767 9.00922C22.2747 9.12917 21.9417 9.6356 21.6358 10.1287C21.3095 10.6685 20.9629 11.1416 20.7725 11.3148C20.6026 11.4681 20.3443 11.6613 20.2084 11.748C20.0656 11.8346 19.7801 11.9679 19.5762 12.0478C19.3723 12.1278 19.0052 12.2411 18.7605 12.3011C18.4682 12.3744 18.142 12.401 17.7749 12.381C17.4215 12.361 17.136 12.3077 16.9593 12.2211C16.8097 12.1545 16.6806 12.0478 16.667 11.9945C16.6534 11.9346 16.7689 11.8413 16.9728 11.7413C17.1904 11.6391 17.503 11.3748 17.9109 10.9483C18.2847 10.5552 18.7198 10.1754 19.0324 9.98211C19.3111 9.8022 19.7122 9.60895 19.9161 9.55564C20.12 9.50233 20.5958 9.3624 20.9697 9.24912C21.3435 9.13583 21.8057 8.95592 21.9892 8.85596C22.1796 8.74934 22.3699 8.66938 22.4175 8.66272Z" fill="white"/>
</svg>
